{"asset":{"version":"2.0","generator":"dzian-pine-gen"},"scene":0,"scenes":[{"nodes":[0]}],"nodes":[{"mesh":0,"name":"pine"}],"meshes":[{"primitives":[{"attributes":{"POSITION":0,"NORMAL":1},"material":0},{"attributes":{"POSITION":2,"NORMAL":3},"material":1},{"attributes":{"POSITION":4,"NORMAL":5},"material":2},{"attributes":{"POSITION":6,"NORMAL":7},"material":3}]}],"materials":[{"pbrMetallicRoughness":{"baseColorFactor":[0.1572807278900734,0.25902733248960613,0.11129941482466024,1],"metallicFactor":0,"roughnessFactor":0.9}},{"pbrMetallicRoughness":{"baseColorFactor":[0.06575388026033009,0.14799802298268516,0.08021925873621505,1],"metallicFactor":0,"roughnessFactor":0.9}},{"pbrMetallicRoughness":{"baseColorFactor":[0.04455262731642138,0.1061560678127439,0.06772458968542432,1],"metallicFactor":0,"roughnessFactor":0.9}},{"pbrMetallicRoughness":{"baseColorFactor":[0.03994717100152558,0.018912983423721504,0.006584957382581685,1],"metallicFactor":0,"roughnessFactor":0.9}}],"buffers":[{"uri":"data:application/octet-stream;base64,","byteLength":2736}],"bufferViews":[{"buffer":0,"byteOffset":0,"byteLength":288},{"buffer":0,"byteOffset":288,"byteLength":288},{"buffer":0,"byteOffset":576,"byteLength":288},{"buffer":0,"byteOffset":864,"byteLength":288},{"buffer":0,"byteOffset":1152,"byteLength":288},{"buffer":0,"byteOffset":1440,"byteLength":288},{"buffer":0,"byteOffset":1728,"byteLength":504},{"buffer":0,"byteOffset":2232,"byteLength":504}],"accessors":[{"bufferView":0,"componentType":5126,"count":24,"type":"VEC3","min":[-0.7293726205825806,1.6200000047683716,-0.7659856081008911],"max":[0.8274500370025635,2.6500000953674316,0.7443609833717346]},{"bufferView":1,"componentType":5126,"count":24,"type":"VEC3"},{"bufferView":2,"componentType":5126,"count":24,"type":"VEC3","min":[-1.0746755599975586,0.949999988079071,-1.02165687084198],"max":[1.2171266078948975,2.049999952316284,1.1608089208602905]},{"bufferView":3,"componentType":5126,"count":24,"type":"VEC3"},{"bufferView":4,"componentType":5126,"count":24,"type":"VEC3","min":[-1.578618049621582,0.2199999988079071,-1.4734019041061401],"max":[1.5486648082733154,1.4199999570846558,1.6117825508117676]},{"bufferView":5,"componentType":5126,"count":24,"type":"VEC3"},{"bufferView":6,"componentType":5126,"count":42,"type":"VEC3","min":[-0.16217440366744995,-0.11999999731779099,-0.17548702657222748],"max":[0.18000000715255737,0.41999998688697815,0.17548702657222748]},{"bufferView":7,"componentType":5126,"count":42,"type":"VEC3"}]}